
<svg xmlns="http://www.w3.org/2000/svg" xml:space="preserve" width="109.814mm" height="26.7976mm" version="1.1" style="shape-rendering:geometricPrecision; text-rendering:geometricPrecision; image-rendering:optimizeQuality; fill-rule:evenodd; clip-rule:evenodd"
viewBox="0 0 10952.36 2672.67"
 xmlns:xlink="http://www.w3.org/1999/xlink"
 xmlns:xodm="http://www.corel.com/coreldraw/odm/2003">
 <defs>
  <style type="text/css">
    
    .fil0 {
        fill:#FFF;
        fill-rule:nonzero
    }
    .fil1 {
        fill:#FCBB19;
        fill-rule:nonzero
    }

    
  </style>
 </defs>
 <g id="Camada_x0020_1">
  <metadata id="CorelCorpID_0Corel-Layer"/>
  <path class="fil0" d="M3530.34 1055.75c-5.89,-59.65 -31.23,-105.79 -76.32,-138.73 -45.09,-32.96 -105.79,-49.61 -182.1,-49.61 -78.38,0 -138.39,15.96 -180.36,47.86 -41.97,32.26 -62.78,72.5 -62.78,121.41 -1.04,54.12 22.2,95.04 69.72,123.13 47.52,27.75 104.06,49.26 169.61,64.52l135.97 32.6c87.77,19.78 165.8,48.21 233.79,85.68 68.34,37.45 122.1,85.67 161.29,144.63 39.2,58.62 58.61,130.42 58.61,214.71 -0.35,138.4 -52.38,248.7 -155.4,330.55 -103.37,82.21 -247.3,123.15 -432.18,123.15 -183.48,0 -330.21,-41.99 -439.47,-125.58 -109.61,-83.94 -166.14,-207.43 -169.97,-371.15l309.41 0c5.56,75.97 35.39,132.86 89.84,171.02 54.46,38.15 123.48,57.23 206.73,57.23 81.16,0 146.02,-17 194.58,-51.68 48.55,-34.34 73.2,-79.43 73.54,-134.57 -0.34,-50.99 -22.9,-90.53 -67.29,-117.94 -44.39,-27.76 -107.53,-51.33 -189.74,-71.11l-164.76 -41.28c-127.64,-30.52 -228.58,-79.08 -302.45,-145.68 -73.88,-66.59 -110.66,-155.4 -109.96,-266.74 -0.7,-91.56 23.93,-172.03 73.53,-240.71 49.26,-68.68 117.6,-122.09 204.3,-160.25 86.72,-38.16 185.23,-57.23 295.54,-57.23 112.38,0 210.55,19.07 294.48,57.57 83.94,38.5 149.5,91.92 196.32,160.26 46.84,68.67 70.76,147.77 72.51,237.94l-306.98 0zm947.25 1100.59c-116.53,0 -216.79,-23.92 -301.06,-71.44 -83.95,-47.52 -148.81,-114.82 -194.25,-202.57 -45.43,-87.41 -67.97,-190.78 -67.97,-310.45 0,-116.88 22.54,-219.56 67.97,-307.66 45.45,-88.11 109.27,-156.77 191.82,-206.04 82.55,-49.24 179.32,-73.86 290.67,-73.86 100.24,0 190.43,21.15 270.9,63.47 80.81,42.32 144.64,106.14 191.81,191.81 47.51,85.32 71.1,192.51 71.1,321.2l0 86.36 -773.15 0 0 0.7c0,84.64 23.24,151.57 69.38,200.13 46.48,48.91 108.92,73.19 188,73.19 52.71,0 98.15,-11.09 136.67,-33.28 38.5,-21.86 65.55,-54.81 81.16,-98.17l291.36 19.09c-22.2,105.43 -78.39,189.72 -168.58,252.86 -90.17,63.12 -205.35,94.68 -345.82,94.68zm-252.16 -704.47l476.6 0c-0.35,-67.28 -21.86,-123.13 -64.87,-166.84 -43.01,-44.05 -98.51,-65.91 -167.19,-65.91 -69.72,0 -127.3,22.9 -172.05,67.99 -44.73,45.44 -69.02,100.23 -72.49,164.75zm1600.4 198.75l0 -651.75 314.94 0 0 1135.28 -302.46 0 0 -206.04 -11.8 0c-25.67,66.26 -67.98,119.68 -127.29,160.27 -59.66,40.22 -131.81,60.69 -217.13,60.69 -114.12,0 -206.73,-38.15 -277.49,-114.47 -70.76,-75.96 -106.13,-180.36 -106.84,-312.87l0 -722.85 314.96 0 0 666.66c0.34,66.95 18.38,120.02 53.76,158.87 35.73,38.84 83.25,58.62 142.9,58.62 56.54,0 106.84,-19.79 150.88,-59.32 44.41,-39.55 65.92,-97.11 65.57,-173.08zm465.81 483.53l0 -1513.71 605.97 0c167.19,0 292.74,36.43 376.68,109.26 83.95,72.5 125.92,165.45 125.92,278.88 0,89.14 -25.66,161.29 -77.35,216.1 -52.03,55.15 -117.24,91.23 -195.97,108.91l0 14.92c57.58,2.42 111.69,18.73 162.33,48.9 50.31,29.84 91.23,71.8 122.78,125.57 31.57,53.77 47.52,117.94 47.52,192.85 0,80.48 -19.77,151.93 -59.65,215.06 -39.55,63.12 -98.17,112.73 -175.52,148.81 -77.33,36.41 -172.73,54.46 -285.8,54.46l-646.9 0zm320.15 -261.53l260.84 0c89.49,0 154.71,-17.34 195.64,-51.69 40.58,-34.69 60.7,-80.13 60.7,-137.01 0,-62.43 -22.2,-113.77 -66.95,-153.66 -44.39,-39.88 -105.09,-59.66 -182.11,-59.66l-268.12 0 0 402.02zm0 -618.81l237.26 0c65.55,0 120.01,-17 163.38,-51.33 43.35,-33.99 64.86,-81.16 64.86,-140.84 0,-54.45 -19.43,-98.49 -57.93,-132.14 -38.86,-33.64 -93.65,-50.31 -164.41,-50.31l-243.16 0 0 374.62zm1456.11 902.53c-114.82,0 -214.01,-24.62 -297.6,-73.53 -83.25,-48.91 -147.76,-117.6 -193.21,-205.35 -45.44,-88.1 -67.98,-190.08 -67.98,-306.63 0,-117.24 22.54,-219.57 67.98,-307.66 45.45,-88.11 109.96,-156.44 193.21,-205.35 83.59,-49.25 182.79,-73.53 297.6,-73.53 114.81,0 214.02,24.28 297.61,73.53 83.25,48.91 147.76,117.24 193.21,205.35 45.08,88.1 67.98,190.43 67.98,307.66 0,116.55 -22.9,218.53 -67.98,306.63 -45.45,87.75 -109.96,156.44 -193.21,205.35 -83.59,48.9 -182.81,73.53 -297.61,73.53zm1.4 -243.83c78.04,0 137.01,-32.6 176.89,-97.47 40.24,-65.21 60.36,-147.07 60.36,-246.27 0,-99.21 -20.12,-181.06 -60.36,-246.63 -39.88,-65.21 -98.85,-97.81 -176.89,-97.81 -79.09,0 -139.09,32.6 -179.67,97.81 -40.24,65.57 -60.35,147.42 -60.35,246.63 0,99.2 20.11,181.06 60.35,246.27 40.58,64.87 100.58,97.47 179.67,97.47zm971.53 -434.63l0 656.27 -314.95 0 0 -1135.28 300.04 0 0 200.49 13.53 0c25.66,-66.25 67.63,-118.63 126.59,-157.12 58.97,-38.86 130.41,-57.93 214.71,-57.93 118.28,0 212.97,37.8 284.43,114.11 71.46,75.97 107.18,180.37 107.18,312.87l0 722.86 -314.61 0 0 -666.67c0.35,-69.37 -17.34,-123.82 -53.42,-163.02 -36.06,-39.2 -85.31,-58.62 -148.46,-58.62 -63.47,0 -115.15,20.47 -154.69,61.05 -39.9,40.58 -60.01,97.47 -60.36,171zm1390.54 678.46c-116.53,0 -216.79,-23.92 -301.06,-71.44 -83.95,-47.52 -148.81,-114.82 -194.25,-202.57 -45.43,-87.41 -67.97,-190.78 -67.97,-310.45 0,-116.88 22.54,-219.56 67.97,-307.66 45.45,-88.11 109.28,-156.77 191.82,-206.04 82.55,-49.24 179.32,-73.86 290.67,-73.86 100.24,0 190.43,21.15 270.9,63.47 80.81,42.32 144.64,106.14 191.81,191.81 47.52,85.32 71.1,192.51 71.1,321.2l0 86.36 -773.15 0 0 0.7c0,84.64 23.24,151.57 69.38,200.13 46.48,48.91 108.92,73.19 188,73.19 52.71,0 98.15,-11.09 136.67,-33.28 38.5,-21.86 65.55,-54.81 81.16,-98.17l291.36 19.09c-22.19,105.43 -78.39,189.72 -168.58,252.86 -90.17,63.12 -205.35,94.68 -345.82,94.68zm-252.16 -704.47l476.6 0c-0.35,-67.28 -21.86,-123.13 -64.87,-166.84 -43.01,-44.05 -98.51,-65.91 -167.19,-65.91 -69.72,0 -127.3,22.9 -172.05,67.99 -44.73,45.44 -69.02,100.23 -72.49,164.75zm118.98 -599.38l157.46 -336.11 290.33 0 -225.46 336.11 -222.33 0z"/>
  <path class="fil1" d="M0.01 1869.69l417.32 -417.33c-107.85,-157.45 -161.89,-340.58 -161.89,-523.42 0,-237.12 90.83,-474.55 272.08,-655.99l0 -0.66 0.1 -0.1 0.07 -0.09c181.24,-181.25 419.05,-272.1 656.63,-272.1 237.12,0 474.62,90.85 656.04,272.1l0.71 0 0.09 0.09 121.67 121.75 -121.67 121.66 -535.16 535.01 -535.03 535.13 -121.69 121.75 -0.17 -0.16 -405.7 405.76 -243.39 -243.39zm1020.68 -247.61l535.14 -535.11 121.69 -121.68 0.14 0.09 405.75 -405.72 243.38 243.32 -417.1 417.1c107.69,157.41 161.58,340.57 161.58,523.68 0,237.53 -90.65,475.31 -272.08,656.75l-0.09 0.07 -0.69 0c-181.44,181.27 -418.97,272.09 -656.01,272.09 -237.13,0 -474.53,-90.82 -656,-272.09l-0.68 0 -0.08 -0.07 -121.68 -121.69 121.68 -121.68 535.04 -535.07zm332.6 154.14l-89.22 89.22 -395.32 395.32c85.28,44.97 179.38,67.54 273.66,67.54 149.89,0 299.63,-57.06 413.66,-170.76l-0.35 -0.34 0.11 -0.06c114.04,-114.08 171.1,-263.74 171.1,-413.38 0,-94.04 -22.55,-188.2 -67.55,-273.35l-305.99 306.01 -0.1 -0.21zm-686.02 -573.76l306.15 -306.17 0.06 0.06 89.15 -89.09 395.42 -395.32c-85.27,-45 -179.49,-67.54 -273.73,-67.54 -149.57,0 -299.27,57.09 -413.26,171.1l-0.09 0.1 -0.08 0.04 -0.33 -0.31c-113.73,114.04 -170.77,263.7 -170.77,413.61 0,94.12 22.55,188.27 67.48,273.52z"/>
 </g>
</svg>
